<svg width="14" height="14" viewBox="0 0 14 14" fill="none" xmlns="http://www.w3.org/2000/svg">
<g clip-path="url(#clip0_155_51)">
<path d="M10.333 3.6438C10.2667 3.6438 10.2031 3.61746 10.1562 3.57058C10.1093 3.52369 10.083 3.4601 10.083 3.3938C10.083 3.32749 10.1093 3.26391 10.1562 3.21702C10.2031 3.17014 10.2667 3.1438 10.333 3.1438M10.333 3.6438C10.3993 3.6438 10.4629 3.61746 10.5098 3.57058C10.5567 3.52369 10.583 3.4601 10.583 3.3938C10.583 3.32749 10.5567 3.26391 10.5098 3.21702C10.4629 3.17014 10.3993 3.1438 10.333 3.1438" stroke="white" stroke-linecap="round" stroke-linejoin="round"/>
<path d="M0.858056 3.43091C0.858056 2.74851 1.12914 2.09406 1.61167 1.61152C2.0942 1.12899 2.74865 0.85791 3.43106 0.85791H10.2931C10.6309 0.85791 10.9655 0.924463 11.2777 1.05377C11.5899 1.18307 11.8735 1.3726 12.1124 1.61152C12.3514 1.85045 12.5409 2.13409 12.6702 2.44627C12.7995 2.75844 12.8661 3.09302 12.8661 3.43091V10.2929C12.8661 10.9753 12.595 11.6298 12.1124 12.1123C11.6299 12.5948 10.9755 12.8659 10.2931 12.8659H3.43006C2.74765 12.8659 2.0932 12.5948 1.61067 12.1123C1.12814 11.6298 0.857056 10.9753 0.857056 10.2929L0.858056 3.43091Z" stroke="white" stroke-linecap="round" stroke-linejoin="round"/>
<path d="M4.31201 6.86201C4.31201 7.19688 4.37797 7.52847 4.50612 7.83785C4.63427 8.14724 4.8221 8.42834 5.05889 8.66513C5.29568 8.90192 5.57679 9.08976 5.88617 9.2179C6.19555 9.34605 6.52714 9.41201 6.86201 9.41201C7.19688 9.41201 7.52847 9.34605 7.83785 9.2179C8.14724 9.08976 8.42834 8.90192 8.66513 8.66513C8.90192 8.42834 9.08976 8.14724 9.2179 7.83785C9.34605 7.52847 9.41201 7.19688 9.41201 6.86201C9.41201 6.18571 9.14335 5.53711 8.66513 5.05889C8.18692 4.58067 7.53831 4.31201 6.86201 4.31201C6.18571 4.31201 5.53711 4.58067 5.05889 5.05889C4.58067 5.53711 4.31201 6.18571 4.31201 6.86201Z" stroke="#00BDE0" stroke-linecap="round" stroke-linejoin="round"/>
</g>
<defs>
<clipPath id="clip0_155_51">
<rect width="14" height="14" fill="white"/>
</clipPath>
</defs>
</svg>
